<svg width="80" height="105" version="1.1" xmlns="http://www.w3.org/2000/svg" desc="Created with imagetracer.js version 1.2.6" ><path fill="rgb(253,246,240)" stroke="rgb(253,246,240)" stroke-width="1" opacity="1" d="M 38.5 11 L 37.5 13 L 38.5 11 Z " /><path fill="rgb(253,246,240)" stroke="rgb(253,246,240)" stroke-width="1" opacity="1" d="M 42.5 11 L 43.5 13 L 42.5 11 Z " /><path fill="rgb(253,246,240)" stroke="rgb(253,246,240)" stroke-width="1" opacity="1" d="M 34.5 17 L 32.5 20 L 34.5 17 Z " /><path fill="rgb(253,246,240)" stroke="rgb(253,246,240)" stroke-width="1" opacity="1" d="M 46.5 17 L 48.5 20 L 46.5 17 Z " /><path fill="rgb(253,246,240)" stroke="rgb(253,246,240)" stroke-width="1" opacity="1" d="M 30.5 22 L 31 25.5 L 30 25.5 L 30.5 22 Z " /><path fill="rgb(253,246,240)" stroke="rgb(253,246,240)" stroke-width="1" opacity="1" d="M 50.5 23 L 51 25.5 L 50 25.5 L 50.5 23 Z " /><path fill="rgb(253,246,240)" stroke="rgb(253,246,240)" stroke-width="1" opacity="1" d="M 18.5 27 Q 24.3 26.2 26 29.5 L 24.5 29 L 18.5 28 L 17 28.5 L 18.5 27 Z " /><path fill="rgb(253,246,240)" stroke="rgb(253,246,240)" stroke-width="1" opacity="1" d="M 62.5 27 L 63.5 29 L 62.5 27 Z " /><path fill="rgb(253,246,240)" stroke="rgb(253,246,240)" stroke-width="1" opacity="1" d="M 56.5 28 L 58 28.5 L 55.5 30 L 56.5 28 Z " /><path fill="rgb(253,246,240)" stroke="rgb(253,246,240)" stroke-width="1" opacity="1" d="M 33.5 30 L 39.5 36 L 41.5 36 L 48 30.5 L 44.5 35 L 46 35.5 L 43.5 37 L 41.5 37 L 38.5 36 L 37 36.5 L 38 35.5 L 33.5 30 Z " /><path fill="rgb(253,246,240)" stroke="rgb(253,246,240)" stroke-width="1" opacity="1" d="M 29.5 31 L 30.5 33 L 29.5 31 Z " /><path fill="rgb(253,246,240)" stroke="rgb(253,246,240)" stroke-width="1" opacity="1" d="M 51.5 31 L 49.5 34 L 51.5 31 Z " /><path fill="rgb(253,246,240)" stroke="rgb(253,246,240)" stroke-width="1" opacity="1" d="M 37.5 38 L 36.5 40 L 37.5 38 Z " /><path fill="rgb(253,246,240)" stroke="rgb(253,246,240)" stroke-width="1" opacity="1" d="M 32.5 40 L 31.5 42 L 30 41.5 L 32.5 40 Z " /><path fill="rgb(253,246,240)" stroke="rgb(253,246,240)" stroke-width="1" opacity="1" d="M 48.5 40 L 51 41.5 L 49.5 42 L 48.5 40 Z " /><path fill="rgb(253,246,240)" stroke="rgb(253,246,240)" stroke-width="1" opacity="1" d="M 49.5 43 L 53 44.5 L 51.5 45 L 49.5 43 Z " /><path fill="rgb(253,246,240)" stroke="rgb(253,246,240)" stroke-width="1" opacity="1" d="M 15.5 44 L 16 46.5 L 15 46.5 L 15.5 44 Z " /><path fill="rgb(253,246,240)" stroke="rgb(253,246,240)" stroke-width="1" opacity="1" d="M 60.5 45 L 64 46.5 L 62.5 47 L 60.5 45 Z " /><path fill="rgb(253,246,240)" stroke="rgb(253,246,240)" stroke-width="1" opacity="1" d="M 23.5 52 L 24.5 54 L 23.5 52 Z " /><path fill="rgb(253,246,240)" stroke="rgb(253,246,240)" stroke-width="1" opacity="1" d="M 57.5 52 L 55.5 55 L 57.5 52 Z " /><path fill="rgb(253,246,240)" stroke="rgb(253,246,240)" stroke-width="1" opacity="1" d="M 20.5 54 L 23 55 L 22.5 57 L 20.5 54 Z " /><path fill="rgb(253,246,240)" stroke="rgb(253,246,240)" stroke-width="1" opacity="1" d="M 29.5 56 L 30.5 58 L 29.5 56 Z " /><path fill="rgb(253,246,240)" stroke="rgb(253,246,240)" stroke-width="1" opacity="1" d="M 51.5 56 L 50.5 58 L 51.5 56 Z " /><path fill="rgb(253,246,240)" stroke="rgb(253,246,240)" stroke-width="1" opacity="1" d="M 53.5 58 L 52.5 60 L 50.5 61 L 51.5 59 L 53.5 58 Z " /><path fill="rgb(253,246,240)" stroke="rgb(253,246,240)" stroke-width="1" opacity="1" d="M 29.5 59 L 30.5 61 L 29.5 59 Z " /><path fill="rgb(253,246,240)" stroke="rgb(253,246,240)" stroke-width="1" opacity="1" d="M 34.5 59 L 38 61.5 L 36 62.5 L 36.5 64 L 34.5 59 Z " /><path fill="rgb(253,246,240)" stroke="rgb(253,246,240)" stroke-width="1" opacity="1" d="M 45.5 60 L 46 62.5 Q 45.3 64.8 47.5 64 L 54 65.5 L 48.5 66 L 45 63.5 Q 45.8 61.3 43.5 62 L 43.5 61 L 45.5 60 Z " /><path fill="rgb(253,246,240)" stroke="rgb(253,246,240)" stroke-width="1" opacity="1" d="M 10.5 64 L 11 66 L 16 66.5 L 11.5 67 L 10.5 64 Z " /><path fill="rgb(253,246,240)" stroke="rgb(253,246,240)" stroke-width="1" opacity="1" d="M 33.5 64 L 35 64.5 Q 32.9 66.9 27.5 66 L 27.5 65 Q 32.2 66.3 33.5 64 Z " /><path fill="rgb(253,246,240)" stroke="rgb(253,246,240)" stroke-width="1" opacity="1" d="M 70.5 64 L 71 66 L 65.5 67 L 65.5 66 Q 69.8 66.8 70.5 64 Z " /><path fill="rgb(253,246,240)" stroke="rgb(253,246,240)" stroke-width="1" opacity="1" d="M 38.5 66 L 43 66.5 L 38.5 67 L 38.5 66 Z " /><path fill="rgb(253,246,240)" stroke="rgb(253,246,240)" stroke-width="1" opacity="1" d="M 29.5 67 L 36 67.5 L 28.5 69 L 29.5 67 Z " /><path fill="rgb(253,246,240)" stroke="rgb(253,246,240)" stroke-width="1" opacity="1" d="M 45.5 67 Q 51.5 65.5 53 68.5 L 51.5 68 L 45.5 68 L 45.5 67 Z " /><path fill="rgb(253,246,240)" stroke="rgb(253,246,240)" stroke-width="1" opacity="1" d="M 20.5 69 L 22 69.5 L 20 70 L 22 73.5 L 19.5 72 L 18 71.5 L 20.5 69 Z " /><path fill="rgb(253,246,240)" stroke="rgb(253,246,240)" stroke-width="1" opacity="1" d="M 11.5 70 L 15 71.5 L 12.5 72 L 11.5 70 Z " /><path fill="rgb(253,246,240)" stroke="rgb(253,246,240)" stroke-width="1" opacity="1" d="M 68.5 70 L 67.5 72 L 66 71.5 L 68.5 70 Z " /><path fill="rgb(253,246,240)" stroke="rgb(253,246,240)" stroke-width="1" opacity="1" d="M 61.5 71 L 59.5 74 L 61.5 71 Z " /><path fill="rgb(253,246,240)" stroke="rgb(253,246,240)" stroke-width="1" opacity="1" d="M 18.5 74 L 19.5 76 L 18.5 74 Z " /><path fill="rgb(253,246,240)" stroke="rgb(253,246,240)" stroke-width="1" opacity="1" d="M 62.5 74 L 61.5 76 L 62.5 74 Z " /><path fill="rgb(253,246,240)" stroke="rgb(253,246,240)" stroke-width="1" opacity="1" d="M 25.5 75 L 27.5 78 L 25.5 75 Z " /><path fill="rgb(253,246,240)" stroke="rgb(253,246,240)" stroke-width="1" opacity="1" d="M 55.5 75 L 54.5 77 L 55.5 75 Z " /><path fill="rgb(253,246,240)" stroke="rgb(253,246,240)" stroke-width="1" opacity="1" d="M 24.5 78 L 25.5 80 L 24.5 78 Z " /><path fill="rgb(253,246,240)" stroke="rgb(253,246,240)" stroke-width="1" opacity="1" d="M 56.5 78 L 55.5 80 L 56.5 78 Z " /><path fill="rgb(253,246,240)" stroke="rgb(253,246,240)" stroke-width="1" opacity="1" d="M 31.5 79 L 33.5 82 L 31.5 79 Z " /><path fill="rgb(253,246,240)" stroke="rgb(253,246,240)" stroke-width="1" opacity="1" d="M 49.5 79 L 47.5 82 L 49.5 79 Z " /><path fill="rgb(253,246,240)" stroke="rgb(253,246,240)" stroke-width="1" opacity="1" d="M 29.5 81 L 31.5 84 L 29.5 81 Z " /><path fill="rgb(253,246,240)" stroke="rgb(253,246,240)" stroke-width="1" opacity="1" d="M 51.5 81 L 49.5 84 L 49 82 L 51.5 81 Z " /><path fill="rgb(253,246,240)" stroke="rgb(253,246,240)" stroke-width="1" opacity="1" d="M 10.5 82 L 12 84.5 L 11 84.5 L 10.5 82 Z " /><path fill="rgb(253,246,240)" stroke="rgb(253,246,240)" stroke-width="1" opacity="1" d="M 38.5 83 L 41.5 84 L 43 83.5 L 39.5 85 L 38.5 83 Z " /><path fill="rgb(253,246,240)" stroke="rgb(253,246,240)" stroke-width="1" opacity="1" d="M 70.5 83 L 69.5 85 L 70.5 83 Z " /><path fill="rgb(253,246,240)" stroke="rgb(253,246,240)" stroke-width="1" opacity="1" d="M 47.5 84 L 45.5 87 L 47.5 84 Z " /><path fill="rgb(253,246,240)" stroke="rgb(253,246,240)" stroke-width="1" opacity="1" d="M 24.5 86 L 27 86.5 L 24.5 87 L 24.5 86 Z " /><path fill="rgb(253,246,240)" stroke="rgb(253,246,240)" stroke-width="1" opacity="1" d="M 54.5 86 L 57 86.5 L 54.5 87 L 54.5 86 Z " /><path fill="rgb(253,246,240)" stroke="rgb(253,246,240)" stroke-width="1" opacity="1" d="M 27.5 89 L 31 89.5 L 27.5 90 L 27.5 89 Z " /><path fill="rgb(253,246,240)" stroke="rgb(253,246,240)" stroke-width="1" opacity="1" d="M 49.5 89 L 54 89.5 L 49.5 90 L 49.5 89 Z " /><path fill="rgb(253,246,240)" stroke="rgb(253,246,240)" stroke-width="1" opacity="1" d="M 23.5 90 L 25 90.5 L 23 91 L 22.5 94 L 22 91.5 L 23.5 90 Z " /><path fill="rgb(253,246,240)" stroke="rgb(253,246,240)" stroke-width="1" opacity="1" d="M 56.5 90 L 59 90.5 L 56.5 91 L 56.5 90 Z " /><path fill="rgb(253,246,240)" stroke="rgb(253,246,240)" stroke-width="1" opacity="1" d="M 26.5 95 L 30 96.5 L 28.5 97 L 26.5 95 Z " /><path fill="rgb(253,246,240)" stroke="rgb(253,246,240)" stroke-width="1" opacity="1" d="M 53.5 95 L 55 95.5 L 51.5 97 L 51.5 96 L 53.5 95 Z " /><path fill="rgb(248,187,124)" stroke="rgb(248,187,124)" stroke-width="1" opacity="1" d="M 33.5 20 L 32.5 22 L 33.5 20 Z " /><path fill="rgb(249,193,136)" stroke="rgb(249,193,136)" stroke-width="1" opacity="1" d="M 60.5 28 L 63 29.5 L 61.5 29 L 60.5 28 Z " /><path fill="rgb(249,193,136)" stroke="rgb(249,193,136)" stroke-width="1" opacity="1" d="M 59.5 48 L 60.5 50 L 59.5 48 Z " /><path fill="rgb(249,193,136)" stroke="rgb(249,193,136)" stroke-width="1" opacity="1" d="M 21.5 85 L 24 85.5 L 21.5 86 L 21.5 85 Z " /><path fill="rgb(249,193,136)" stroke="rgb(249,193,136)" stroke-width="1" opacity="1" d="M 57.5 85 L 60 85.5 L 57.5 86 L 57.5 85 Z " /><path fill="rgb(249,193,136)" stroke="rgb(249,193,136)" stroke-width="1" opacity="1" d="M 31.5 90 L 36 90.5 L 31.5 91 L 31.5 90 Z " /><path fill="rgb(249,193,136)" stroke="rgb(249,193,136)" stroke-width="1" opacity="1" d="M 45.5 90 L 49 90.5 L 45.5 91 L 45.5 90 Z " /><path fill="rgb(249,193,136)" stroke="rgb(249,193,136)" stroke-width="1" opacity="1" d="M 57.5 91 L 58 92.5 L 56 93.5 L 57.5 91 Z " /><path fill="rgb(249,193,136)" stroke="rgb(249,193,136)" stroke-width="1" opacity="1" d="M 23.5 92 L 24.5 94 L 23.5 92 Z " /><path fill="rgb(255,254,254)" stroke="rgb(255,254,254)" stroke-width="1" opacity="1" d="M 38.5 10 L 37.5 12 L 38.5 10 Z " /><path fill="rgb(255,254,254)" stroke="rgb(255,254,254)" stroke-width="1" opacity="1" d="M 42.5 10 L 43.5 12 L 42.5 10 Z " /><path fill="rgb(255,254,254)" stroke="rgb(255,254,254)" stroke-width="1" opacity="1" d="M 34.5 15 L 35 16.5 L 33 17.5 L 34.5 15 Z " /><path fill="rgb(255,254,254)" stroke="rgb(255,254,254)" stroke-width="1" opacity="1" d="M 46.5 15 L 48 17.5 L 46 16.5 L 46.5 15 Z " /><path fill="rgb(255,254,254)" stroke="rgb(255,254,254)" stroke-width="1" opacity="1" d="M 49.5 21 L 50.5 23 L 49.5 21 Z " /><path fill="rgb(255,254,254)" stroke="rgb(255,254,254)" stroke-width="1" opacity="1" d="M 48 32 L 50 32.5 L 48 33.5 L 48 32 Z " /><path fill="rgb(255,254,254)" stroke="rgb(255,254,254)" stroke-width="1" opacity="1" d="M 15.5 34 L 16 43.5 L 15 43.5 L 15.5 34 Z " /><path fill="rgb(255,254,254)" stroke="rgb(255,254,254)" stroke-width="1" opacity="1" d="M 36.5 34 L 37.5 36 Q 34.7 36.7 36.5 34 Z " /><path fill="rgb(255,254,254)" stroke="rgb(255,254,254)" stroke-width="1" opacity="1" d="M 44.5 34 L 43.5 36 L 44.5 34 Z " /><path fill="rgb(255,254,254)" stroke="rgb(255,254,254)" stroke-width="1" opacity="1" d="M 65.5 34 L 66 43.5 L 65 43.5 L 65.5 34 Z " /><path fill="rgb(255,254,254)" stroke="rgb(255,254,254)" stroke-width="1" opacity="1" d="M 39.5 37 L 42 37.5 L 39.5 38 L 39.5 37 Z " /><path fill="rgb(255,254,254)" stroke="rgb(255,254,254)" stroke-width="1" opacity="1" d="M 32.5 41 L 33.5 43 L 32.5 41 Z " /><path fill="rgb(255,254,254)" stroke="rgb(255,254,254)" stroke-width="1" opacity="1" d="M 48.5 41 L 47.5 43 L 48.5 41 Z " /><path fill="rgb(255,254,254)" stroke="rgb(255,254,254)" stroke-width="1" opacity="1" d="M 29.5 42 L 30.5 44 Q 27.7 44.7 29.5 42 Z " /><path fill="rgb(255,254,254)" stroke="rgb(255,254,254)" stroke-width="1" opacity="1" d="M 21.5 45 Q 23.8 44.3 23 46.5 L 21.5 45 Z " /><path fill="rgb(255,254,254)" stroke="rgb(255,254,254)" stroke-width="1" opacity="1" d="M 59.5 45 L 58.5 47 L 59.5 45 Z " /><path fill="rgb(255,254,254)" stroke="rgb(255,254,254)" stroke-width="1" opacity="1" d="M 19.5 48 L 19 49.5 L 18.5 51 L 18 49.5 L 19.5 48 Z " /><path fill="rgb(255,254,254)" stroke="rgb(255,254,254)" stroke-width="1" opacity="1" d="M 61.5 48 L 63 50.5 L 62 50.5 L 61.5 48 Z " /><path fill="rgb(255,254,254)" stroke="rgb(255,254,254)" stroke-width="1" opacity="1" d="M 22.5 52 L 23.5 54 L 22.5 52 Z " /><path fill="rgb(255,254,254)" stroke="rgb(255,254,254)" stroke-width="1" opacity="1" d="M 58.5 52 L 57.5 54 L 58.5 52 Z " /><path fill="rgb(255,254,254)" stroke="rgb(255,254,254)" stroke-width="1" opacity="1" d="M 28.5 56 Q 31.5 57.5 28.5 59 L 28.5 56 Z " /><path fill="rgb(255,254,254)" stroke="rgb(255,254,254)" stroke-width="1" opacity="1" d="M 52.5 56 L 52.5 59 Q 49.5 57.5 52.5 56 Z " /><path fill="rgb(255,254,254)" stroke="rgb(255,254,254)" stroke-width="1" opacity="1" d="M 49.5 58 Q 52.5 59.5 49.5 61 L 49.5 58 Z " /><path fill="rgb(255,254,254)" stroke="rgb(255,254,254)" stroke-width="1" opacity="1" d="M 30.5 59 L 31.5 61 L 30.5 59 Z " /><path fill="rgb(255,254,254)" stroke="rgb(255,254,254)" stroke-width="1" opacity="1" d="M 33.5 59 L 34.5 61 L 33.5 59 Z " /><path fill="rgb(255,254,254)" stroke="rgb(255,254,254)" stroke-width="1" opacity="1" d="M 46.5 60 L 47.5 62 L 46.5 60 Z " /><path fill="rgb(255,254,254)" stroke="rgb(255,254,254)" stroke-width="1" opacity="1" d="M 44.5 62 L 46 64.5 L 44 63.5 L 44.5 62 Z " /><path fill="rgb(255,254,254)" stroke="rgb(255,254,254)" stroke-width="1" opacity="1" d="M 61.5 70 Q 63.8 69.3 63 71.5 L 61 72.5 L 61.5 70 Z " /><path fill="rgb(255,254,254)" stroke="rgb(255,254,254)" stroke-width="1" opacity="1" d="M 18.5 72 L 20 72.5 L 17.5 74 L 18.5 72 Z " /><path fill="rgb(255,254,254)" stroke="rgb(255,254,254)" stroke-width="1" opacity="1" d="M 22.5 74 L 21.5 76 L 20 75.5 L 22.5 74 Z " /><path fill="rgb(255,254,254)" stroke="rgb(255,254,254)" stroke-width="1" opacity="1" d="M 58.5 74 L 61 75.5 L 59.5 76 L 58.5 74 Z " /><path fill="rgb(255,254,254)" stroke="rgb(255,254,254)" stroke-width="1" opacity="1" d="M 25.5 76 L 27 77.5 L 26.5 80 L 25 78.5 L 25.5 76 Z " /><path fill="rgb(255,254,254)" stroke="rgb(255,254,254)" stroke-width="1" opacity="1" d="M 55.5 78 L 54.5 80 L 55.5 78 Z " /><path fill="rgb(255,254,254)" stroke="rgb(255,254,254)" stroke-width="1" opacity="1" d="M 30.5 79 L 31.5 81 L 30.5 79 Z " /><path fill="rgb(255,254,254)" stroke="rgb(255,254,254)" stroke-width="1" opacity="1" d="M 50.5 79 L 49.5 81 L 50.5 79 Z " /><path fill="rgb(255,254,254)" stroke="rgb(255,254,254)" stroke-width="1" opacity="1" d="M 10.5 83 L 12 85.5 L 10 84.5 L 10.5 83 Z " /><path fill="rgb(255,254,254)" stroke="rgb(255,254,254)" stroke-width="1" opacity="1" d="M 37.5 83 L 38.5 85 Q 35.7 85.7 37.5 83 Z " /><path fill="rgb(255,254,254)" stroke="rgb(255,254,254)" stroke-width="1" opacity="1" d="M 43.5 83 L 44 85 L 42 84.5 L 43.5 83 Z " /><path fill="rgb(255,254,254)" stroke="rgb(255,254,254)" stroke-width="1" opacity="1" d="M 70.5 84 L 69.5 86 L 70.5 84 Z " /><path fill="rgb(255,254,254)" stroke="rgb(255,254,254)" stroke-width="1" opacity="1" d="M 35.5 85 L 36 86.5 L 34.5 88 L 26.5 88 L 26.5 87 L 34.5 87 L 35.5 85 Z " /><path fill="rgb(255,254,254)" stroke="rgb(255,254,254)" stroke-width="1" opacity="1" d="M 46.5 87 L 55 87.5 L 46.5 88 L 46.5 87 Z " /><path fill="rgb(255,254,254)" stroke="rgb(255,254,254)" stroke-width="1" opacity="1" d="M 21 90 L 23 90.5 L 21.5 93 L 21 90 Z " /><path fill="rgb(255,254,254)" stroke="rgb(255,254,254)" stroke-width="1" opacity="1" d="M 59.5 90 L 60 92.5 L 59 92.5 L 59.5 90 Z " /><path fill="rgb(248,178,108)" stroke="rgb(248,178,108)" stroke-width="1" opacity="1" d="M 26.5 85 L 29 85.5 L 26.5 86 L 26.5 85 Z " /><path fill="rgb(248,178,108)" stroke="rgb(248,178,108)" stroke-width="1" opacity="1" d="M 52.5 85 L 55 85.5 L 52.5 86 L 52.5 85 Z " /><path fill="rgb(248,178,108)" stroke="rgb(248,178,108)" stroke-width="1" opacity="1" d="M 38.5 90 L 43 90.5 L 38.5 91 L 38.5 90 Z " /><path fill="rgb(255,255,255)" stroke="rgb(255,255,255)" stroke-width="1" opacity="1" d="M 0 0 L 80 0 L 80 105 L 0 105 L 0 0 Z M 39 10 L 36 14 Q 37 16 34 15 L 30 23 Q 28 29 32 28 L 36 34 Q 37 36 35 35 L 33 32 L 28 30 Q 25 31 26 28 L 19 27 L 15 35 Q 16 43 14 47 L 20 46 L 22 47 L 21 47 L 18 51 L 21 51 L 26 55 Q 29 54 28 57 L 36 61 L 36 62 L 15 51 L 9 51 L 10 67 L 17 67 L 18 66 L 34 66 L 35 65 Q 39 66 37 62 L 44 62 L 44 64 L 48 66 L 70 67 Q 74 62 72 51 L 67 51 L 47 62 L 45 62 L 61 51 Q 64 52 63 50 L 61 47 L 53 44 L 53 43 L 56 44 Q 60 43 59 46 L 66 47 L 66 35 L 63 27 L 58 28 Q 54 27 55 30 L 51 32 Q 47 31 48 34 L 45 35 L 49 30 Q 48 27 51 28 L 51 23 L 47 17 Q 48 14 45 15 L 44 12 Q 43 9 39 10 Z M 37 66 L 36 67 L 29 67 L 28 69 L 21 69 L 20 70 Q 17 69 18 73 Q 21 72 23 75 Q 26 74 25 77 L 35 83 Q 38 82 37 85 L 44 85 L 44 83 L 55 77 Q 57 78 56 75 L 62 73 L 63 70 L 61 69 L 54 69 L 53 67 L 37 66 Z M 8 70 L 8 78 L 10 85 L 12 86 L 24 86 Q 26 90 35 88 L 36 85 L 34 84 Q 31 85 32 82 L 24 77 Q 21 78 22 75 Q 19 76 18 73 Q 14 74 15 71 L 8 70 Z M 68 70 L 66 73 Q 63 72 62 75 Q 58 74 59 77 L 51 82 Q 47 81 48 84 L 45 85 L 47 88 Q 55 90 58 86 L 70 86 L 73 78 L 73 70 L 68 70 Z M 27 89 L 26 90 Q 20 88 21 93 L 26 96 Q 32 96 35 99 L 47 99 L 59 94 L 60 90 L 55 89 L 27 89 Z " /><path fill="rgb(255,255,255)" stroke="rgb(255,255,255)" stroke-width="1" opacity="1" d="M 38.5 36 L 39 38 Q 42.8 39.5 42 36.5 L 43 36.5 L 44.5 40 L 48 40 Q 46.8 43 50.5 42 L 50.5 43 Q 44.3 40.3 33.5 42 L 30.5 43 L 30.5 42 Q 34.3 43 33 40 L 36.5 40 L 38.5 36 Z " /><path fill="rgb(255,255,255)" stroke="rgb(255,255,255)" stroke-width="1" opacity="1" d="M 26.5 43 L 29 43.5 L 23 46 Q 21.8 43 25.5 44 L 26.5 43 Z " /><path fill="rgb(247,170,91)" stroke="rgb(247,170,91)" stroke-width="1" opacity="1" d="M 44.5 16 L 45.5 18 L 44.5 16 Z " /><path fill="rgb(247,170,91)" stroke="rgb(247,170,91)" stroke-width="1" opacity="1" d="M 35.5 30 L 36.5 32 L 35.5 30 Z " /><path fill="rgb(247,170,91)" stroke="rgb(247,170,91)" stroke-width="1" opacity="1" d="M 45.5 30 L 44.5 32 L 45.5 30 Z " /><path fill="rgb(247,170,91)" stroke="rgb(247,170,91)" stroke-width="1" opacity="1" d="M 19.5 76 L 20.5 78 L 19.5 76 Z " /><path fill="rgb(247,170,91)" stroke="rgb(247,170,91)" stroke-width="1" opacity="1" d="M 31.5 84 L 30.5 86 L 29 85.5 L 31.5 84 Z " /><path fill="rgb(247,170,91)" stroke="rgb(247,170,91)" stroke-width="1" opacity="1" d="M 49.5 84 L 52 85.5 L 50.5 86 L 49.5 84 Z " /><path fill="rgb(246,134,22)" stroke="rgb(246,134,22)" stroke-width="1" opacity="1" d="M 40.5 12 L 42.5 15 L 40.5 12 Z " /><path fill="rgb(246,134,22)" stroke="rgb(246,134,22)" stroke-width="1" opacity="1" d="M 37.5 16 L 36.5 18 L 37.5 16 Z " /><path fill="rgb(246,134,22)" stroke="rgb(246,134,22)" stroke-width="1" opacity="1" d="M 44.5 18 L 45.5 20 L 44.5 18 Z " /><path fill="rgb(246,134,22)" stroke="rgb(246,134,22)" stroke-width="1" opacity="1" d="M 19.5 29 L 23 30.5 L 21.5 30 Q 18.5 30.5 19.5 29 Z " /><path fill="rgb(246,134,22)" stroke="rgb(246,134,22)" stroke-width="1" opacity="1" d="M 59.5 29 L 62 29.5 L 58.5 31 L 59.5 29 Z " /><path fill="rgb(246,134,22)" stroke="rgb(246,134,22)" stroke-width="1" opacity="1" d="M 37.5 31 L 39.5 34 L 37.5 31 Z " /><path fill="rgb(246,134,22)" stroke="rgb(246,134,22)" stroke-width="1" opacity="1" d="M 43.5 31 L 41.5 34 L 43.5 31 Z " /><path fill="rgb(246,134,22)" stroke="rgb(246,134,22)" stroke-width="1" opacity="1" d="M 54.5 32 L 53.5 34 L 51.5 35 L 52.5 33 L 54.5 32 Z " /><path fill="rgb(246,134,22)" stroke="rgb(246,134,22)" stroke-width="1" opacity="1" d="M 28.5 33 L 29.5 35 L 28.5 33 Z " /><path fill="rgb(246,134,22)" stroke="rgb(246,134,22)" stroke-width="1" opacity="1" d="M 33.5 36 L 34.5 38 L 33.5 36 Z " /><path fill="rgb(246,134,22)" stroke="rgb(246,134,22)" stroke-width="1" opacity="1" d="M 47.5 36 L 46.5 38 L 45 37.5 L 47.5 36 Z " /><path fill="rgb(246,134,22)" stroke="rgb(246,134,22)" stroke-width="1" opacity="1" d="M 53.5 40 L 56 41.5 L 54.5 41 L 53.5 40 Z " /><path fill="rgb(246,134,22)" stroke="rgb(246,134,22)" stroke-width="1" opacity="1" d="M 17 43 L 19 43.5 L 17 44.5 L 17 43 Z " /><path fill="rgb(246,134,22)" stroke="rgb(246,134,22)" stroke-width="1" opacity="1" d="M 57.5 48 L 58.5 50 L 57.5 48 Z " /><path fill="rgb(246,134,22)" stroke="rgb(246,134,22)" stroke-width="1" opacity="1" d="M 24.5 50 L 25.5 52 L 24.5 50 Z " /><path fill="rgb(246,134,22)" stroke="rgb(246,134,22)" stroke-width="1" opacity="1" d="M 56.5 50 L 55.5 52 L 56.5 50 Z " /><path fill="rgb(246,134,22)" stroke="rgb(246,134,22)" stroke-width="1" opacity="1" d="M 31.5 55 L 32.5 57 L 31.5 55 Z " /><path fill="rgb(246,134,22)" stroke="rgb(246,134,22)" stroke-width="1" opacity="1" d="M 49.5 55 L 48.5 57 L 49.5 55 Z " /><path fill="rgb(246,134,22)" stroke="rgb(246,134,22)" stroke-width="1" opacity="1" d="M 38.5 59 L 43 59.5 L 38.5 60 L 38.5 59 Z " /><path fill="rgb(246,134,22)" stroke="rgb(246,134,22)" stroke-width="1" opacity="1" d="M 54.5 60 L 53.5 62 L 54.5 60 Z " /><path fill="rgb(246,134,22)" stroke="rgb(246,134,22)" stroke-width="1" opacity="1" d="M 11.5 61 L 12.5 63 L 11.5 61 Z " /><path fill="rgb(246,134,22)" stroke="rgb(246,134,22)" stroke-width="1" opacity="1" d="M 68.5 61 L 69 63.5 L 68 63.5 L 68.5 61 Z " /><path fill="rgb(246,134,22)" stroke="rgb(246,134,22)" stroke-width="1" opacity="1" d="M 19.5 63 L 24 63.5 L 19.5 64 L 19.5 63 Z " /><path fill="rgb(246,134,22)" stroke="rgb(246,134,22)" stroke-width="1" opacity="1" d="M 57.5 63 L 62 63.5 L 57.5 64 L 57.5 63 Z " /><path fill="rgb(246,134,22)" stroke="rgb(246,134,22)" stroke-width="1" opacity="1" d="M 22.5 71 L 25 72.5 L 23.5 72 L 22.5 71 Z " /><path fill="rgb(246,134,22)" stroke="rgb(246,134,22)" stroke-width="1" opacity="1" d="M 57.5 71 L 59 71.5 L 56.5 73 L 57.5 71 Z " /><path fill="rgb(246,134,22)" stroke="rgb(246,134,22)" stroke-width="1" opacity="1" d="M 8 72 L 11 72.5 L 8 74 L 8 72 Z " /><path fill="rgb(246,134,22)" stroke="rgb(246,134,22)" stroke-width="1" opacity="1" d="M 70.5 72 L 73 72.5 Q 70.9 75.8 70.5 72 Z " /><path fill="rgb(246,134,22)" stroke="rgb(246,134,22)" stroke-width="1" opacity="1" d="M 64.5 75 L 62.5 78 L 64.5 75 Z " /><path fill="rgb(246,134,22)" stroke="rgb(246,134,22)" stroke-width="1" opacity="1" d="M 17.5 76 L 18.5 78 L 17.5 76 Z " /><path fill="rgb(246,134,22)" stroke="rgb(246,134,22)" stroke-width="1" opacity="1" d="M 47.5 78 L 46.5 80 L 47.5 78 Z " /><path fill="rgb(246,134,22)" stroke="rgb(246,134,22)" stroke-width="1" opacity="1" d="M 22.5 79 L 24.5 82 L 22.5 79 Z " /><path fill="rgb(246,134,22)" stroke="rgb(246,134,22)" stroke-width="1" opacity="1" d="M 58.5 79 L 56.5 82 L 58.5 79 Z " /><path fill="rgb(246,134,22)" stroke="rgb(246,134,22)" stroke-width="1" opacity="1" d="M 11.5 80 L 12.5 82 L 11.5 80 Z " /><path fill="rgb(246,134,22)" stroke="rgb(246,134,22)" stroke-width="1" opacity="1" d="M 69.5 80 L 68.5 82 L 69.5 80 Z " /><path fill="rgb(246,134,22)" stroke="rgb(246,134,22)" stroke-width="1" opacity="1" d="M 27.5 91 L 54.5 91 L 56 92.5 L 54.5 92 L 27.5 92 L 25.5 93 L 25.5 92 L 27.5 91 Z " /><path fill="rgb(246,134,22)" stroke="rgb(246,134,22)" stroke-width="1" opacity="1" d="M 30.5 94 L 33 95.5 L 31.5 95 L 30.5 94 Z " /><path fill="rgb(246,134,22)" stroke="rgb(246,134,22)" stroke-width="1" opacity="1" d="M 49.5 94 L 48.5 96 L 49.5 94 Z " /><path fill="rgb(247,160,73)" stroke="rgb(247,160,73)" stroke-width="1" opacity="1" d="M 21.5 49 L 22.5 51 L 21.5 49 Z " /><path fill="rgb(246,145,42)" stroke="rgb(246,145,42)" stroke-width="1" opacity="1" d="M 44.5 17 L 45.5 19 L 44.5 17 Z " /><path fill="rgb(246,145,42)" stroke="rgb(246,145,42)" stroke-width="1" opacity="1" d="M 34.5 28 L 36.5 31 L 34.5 28 Z " /><path fill="rgb(246,145,42)" stroke="rgb(246,145,42)" stroke-width="1" opacity="1" d="M 46.5 28 L 44.5 31 L 46.5 28 Z " /><path fill="rgb(246,145,42)" stroke="rgb(246,145,42)" stroke-width="1" opacity="1" d="M 22.5 29 L 23.5 31 L 22.5 29 Z " /><path fill="rgb(246,145,42)" stroke="rgb(246,145,42)" stroke-width="1" opacity="1" d="M 34.5 36 L 35.5 38 L 34.5 36 Z " /><path fill="rgb(246,145,42)" stroke="rgb(246,145,42)" stroke-width="1" opacity="1" d="M 17.5 40 L 18 42.5 L 17 42.5 L 17.5 40 Z " /><path fill="rgb(246,145,42)" stroke="rgb(246,145,42)" stroke-width="1" opacity="1" d="M 19.5 43 L 18.5 45 L 19.5 43 Z " /><path fill="rgb(246,145,42)" stroke="rgb(246,145,42)" stroke-width="1" opacity="1" d="M 61.5 43 L 64 44.5 L 62.5 45 L 61.5 43 Z " /><path fill="rgb(246,145,42)" stroke="rgb(246,145,42)" stroke-width="1" opacity="1" d="M 47.5 44 L 52 46.5 L 50.5 46 Q 46.7 46.5 47.5 44 Z " /><path fill="rgb(246,145,42)" stroke="rgb(246,145,42)" stroke-width="1" opacity="1" d="M 10.5 54 L 11 56.5 L 10 56.5 L 10.5 54 Z " /><path fill="rgb(246,145,42)" stroke="rgb(246,145,42)" stroke-width="1" opacity="1" d="M 70.5 54 L 71 56.5 L 70 56.5 L 70.5 54 Z " /><path fill="rgb(246,145,42)" stroke="rgb(246,145,42)" stroke-width="1" opacity="1" d="M 20.5 56 L 21.5 58 L 20.5 56 Z " /><path fill="rgb(246,145,42)" stroke="rgb(246,145,42)" stroke-width="1" opacity="1" d="M 53.5 60 L 52.5 62 L 53.5 60 Z " /><path fill="rgb(246,145,42)" stroke="rgb(246,145,42)" stroke-width="1" opacity="1" d="M 30.5 62 L 31.5 64 L 24 63.5 L 30.5 62 Z " /><path fill="rgb(246,145,42)" stroke="rgb(246,145,42)" stroke-width="1" opacity="1" d="M 49.5 63 L 57 63.5 L 49.5 64 L 49.5 63 Z " /><path fill="rgb(246,145,42)" stroke="rgb(246,145,42)" stroke-width="1" opacity="1" d="M 36.5 68 L 45 68.5 L 36.5 69 L 36.5 68 Z " /><path fill="rgb(246,145,42)" stroke="rgb(246,145,42)" stroke-width="1" opacity="1" d="M 46.5 69 L 49 69.5 L 46.5 70 L 46.5 69 Z " /><path fill="rgb(246,145,42)" stroke="rgb(246,145,42)" stroke-width="1" opacity="1" d="M 72.5 73 L 72 74.5 L 71.5 76 L 71 74.5 L 72.5 73 Z " /><path fill="rgb(246,145,42)" stroke="rgb(246,145,42)" stroke-width="1" opacity="1" d="M 50.5 94 L 52 94.5 L 49.5 96 L 50.5 94 Z " /><path fill="rgb(247,132,16)" stroke="rgb(247,132,16)" stroke-width="1" opacity="1" d="M 40.5 13 L 45.5 20 Q 48.1 19.2 47 22.5 L 48 26.5 L 45 28 L 40.5 34 L 36 28 Q 33.3 29.1 34 26.5 L 33 23.5 L 34 20 Q 36.7 21.1 36 18.5 L 40.5 13 Z " /><path fill="rgb(247,132,16)" stroke="rgb(247,132,16)" stroke-width="1" opacity="1" d="M 19 30 Q 27.9 31.9 34 37.5 L 26.5 40 L 24.5 42 L 18 43 Q 17 34.6 19 30 Z " /><path fill="rgb(247,132,16)" stroke="rgb(247,132,16)" stroke-width="1" opacity="1" d="M 59.5 30 Q 63.3 28.8 62 32.5 L 63 33.5 L 63 43 L 56.5 42 L 54.5 40 L 47 37.5 L 59.5 30 Z " /><path fill="rgb(247,132,16)" stroke="rgb(247,132,16)" stroke-width="1" opacity="1" d="M 40.5 43 L 47 44 Q 45.7 47.3 50.5 46 L 58 49.5 L 55 51.5 Q 55.8 54.1 52.5 53 L 46.5 58 L 37.5 59 L 28.5 53 L 26 53 L 24.5 50 Q 21.9 50.7 23 48 L 34 46 Q 32.6 42 39.5 44 L 40.5 43 Z " /><path fill="rgb(247,132,16)" stroke="rgb(247,132,16)" stroke-width="1" opacity="1" d="M 11 54 L 20 56 Q 18.9 58.7 21.5 58 L 29 62.5 L 19.5 63 Q 17.5 65.8 13 65 Q 13.8 61.6 11 60.5 L 11 54 Z " /><path fill="rgb(247,132,16)" stroke="rgb(247,132,16)" stroke-width="1" opacity="1" d="M 67.5 54 L 70 54 L 70 61 Q 66.3 59.8 68 65 L 64.5 65 L 61.5 63 L 51 62.5 L 61 58 Q 59.8 55 63.5 56 L 67.5 54 Z " /><path fill="rgb(247,132,16)" stroke="rgb(247,132,16)" stroke-width="1" opacity="1" d="M 36.5 69 L 44.5 69 L 57 71.5 L 51 75 Q 52.1 77.7 49.5 77 L 41.5 82 L 38.5 82 L 32.5 77 L 30 77 Q 31.1 74.3 28.5 75 L 24 71.5 L 36.5 69 Z " /><path fill="rgb(247,132,16)" stroke="rgb(247,132,16)" stroke-width="1" opacity="1" d="M 10 73 L 17 75 L 18.5 78 L 26.5 83 L 29 83 Q 30.1 86.5 22.5 85 L 21.5 84 L 13 84 L 10 73 Z " /><path fill="rgb(247,132,16)" stroke="rgb(247,132,16)" stroke-width="1" opacity="1" d="M 69.5 73 Q 72.5 72.1 71 76.5 L 68 84 L 52 85 Q 50.8 82 54.5 83 L 69.5 73 Z " /><path fill="rgb(247,132,16)" stroke="rgb(247,132,16)" stroke-width="1" opacity="1" d="M 27.5 92 L 55 92.5 L 44.5 97 L 41 97 L 40.5 99 L 40 97 L 33.5 96 L 27.5 93 L 27.5 92 Z " /><path fill="rgb(246,154,61)" stroke="rgb(246,154,61)" stroke-width="1" opacity="1" d="M 29.5 54 L 30.5 56 L 29.5 54 Z " /><path fill="rgb(246,154,61)" stroke="rgb(246,154,61)" stroke-width="1" opacity="1" d="M 48.5 78 L 47.5 80 L 48.5 78 Z " /><path fill="rgb(250,202,154)" stroke="rgb(250,202,154)" stroke-width="1" opacity="1" d="M 44.5 32 L 42.5 35 L 44.5 32 Z " /><path fill="rgb(250,202,154)" stroke="rgb(250,202,154)" stroke-width="1" opacity="1" d="M 34.5 35 L 35.5 37 L 34.5 35 Z " /><path fill="rgb(250,202,154)" stroke="rgb(250,202,154)" stroke-width="1" opacity="1" d="M 26.5 53 L 27.5 55 L 26.5 53 Z " /><path fill="rgb(250,202,154)" stroke="rgb(250,202,154)" stroke-width="1" opacity="1" d="M 62.5 54 L 61.5 56 L 62.5 54 Z " /><path fill="rgb(250,202,154)" stroke="rgb(250,202,154)" stroke-width="1" opacity="1" d="M 47.5 62 L 46.5 64 L 47.5 62 Z " /><path fill="rgb(250,202,154)" stroke="rgb(250,202,154)" stroke-width="1" opacity="1" d="M 11.5 64 L 12.5 66 L 11.5 64 Z " /><path fill="rgb(250,202,154)" stroke="rgb(250,202,154)" stroke-width="1" opacity="1" d="M 27.5 64 L 30 64.5 L 27.5 65 L 27.5 64 Z " /><path fill="rgb(250,202,154)" stroke="rgb(250,202,154)" stroke-width="1" opacity="1" d="M 69.5 64 L 68.5 66 L 69.5 64 Z " /><path fill="rgb(250,202,154)" stroke="rgb(250,202,154)" stroke-width="1" opacity="1" d="M 14.5 65 L 17 65.5 L 14.5 66 L 14.5 65 Z " /><path fill="rgb(250,202,154)" stroke="rgb(250,202,154)" stroke-width="1" opacity="1" d="M 64.5 65 L 67 65.5 L 64.5 66 L 64.5 65 Z " /><path fill="rgb(250,202,154)" stroke="rgb(250,202,154)" stroke-width="1" opacity="1" d="M 39.5 67 L 42 67.5 L 39.5 68 L 39.5 67 Z " /><path fill="rgb(250,202,154)" stroke="rgb(250,202,154)" stroke-width="1" opacity="1" d="M 21.5 70 L 20.5 72 L 21.5 70 Z " /><path fill="rgb(250,202,154)" stroke="rgb(250,202,154)" stroke-width="1" opacity="1" d="M 59.5 70 L 60.5 72 L 59.5 70 Z " /><path fill="rgb(250,202,154)" stroke="rgb(250,202,154)" stroke-width="1" opacity="1" d="M 16.5 85 L 21 85.5 L 16.5 86 L 16.5 85 Z " /><path fill="rgb(250,202,154)" stroke="rgb(250,202,154)" stroke-width="1" opacity="1" d="M 60.5 85 L 65 85.5 L 60.5 86 L 60.5 85 Z " /><path fill="rgb(250,202,154)" stroke="rgb(250,202,154)" stroke-width="1" opacity="1" d="M 28.5 90 L 31 90.5 L 28.5 91 L 28.5 90 Z " /><path fill="rgb(250,202,154)" stroke="rgb(250,202,154)" stroke-width="1" opacity="1" d="M 49.5 90 L 53 90.5 L 49.5 91 L 49.5 90 Z " /><path fill="rgb(251,223,195)" stroke="rgb(251,223,195)" stroke-width="1" opacity="1" d="M 38.5 12 L 36.5 15 L 38.5 12 Z " /><path fill="rgb(251,223,195)" stroke="rgb(251,223,195)" stroke-width="1" opacity="1" d="M 43.5 13 L 44.5 15 L 43.5 13 Z " /><path fill="rgb(251,223,195)" stroke="rgb(251,223,195)" stroke-width="1" opacity="1" d="M 33.5 19 L 32.5 21 L 33.5 19 Z " /><path fill="rgb(251,223,195)" stroke="rgb(251,223,195)" stroke-width="1" opacity="1" d="M 60.5 27 L 64 29.5 L 63.5 31 L 61.5 28 L 60.5 27 Z " /><path fill="rgb(251,223,195)" stroke="rgb(251,223,195)" stroke-width="1" opacity="1" d="M 18.5 28 L 18 29.5 L 17.5 31 L 17 29.5 L 18.5 28 Z " /><path fill="rgb(251,223,195)" stroke="rgb(251,223,195)" stroke-width="1" opacity="1" d="M 32.5 28 L 35.5 32 L 32.5 28 Z " /><path fill="rgb(251,223,195)" stroke="rgb(251,223,195)" stroke-width="1" opacity="1" d="M 48.5 28 L 45.5 32 L 48.5 28 Z " /><path fill="rgb(251,223,195)" stroke="rgb(251,223,195)" stroke-width="1" opacity="1" d="M 28.5 31 L 29.5 33 L 28.5 31 Z " /><path fill="rgb(251,223,195)" stroke="rgb(251,223,195)" stroke-width="1" opacity="1" d="M 52.5 31 L 51.5 33 L 52.5 31 Z " /><path fill="rgb(251,223,195)" stroke="rgb(251,223,195)" stroke-width="1" opacity="1" d="M 47.5 34 L 46.5 36 L 47.5 34 Z " /><path fill="rgb(251,223,195)" stroke="rgb(251,223,195)" stroke-width="1" opacity="1" d="M 16.5 35 L 17 37.5 L 16 37.5 L 16.5 35 Z " /><path fill="rgb(251,223,195)" stroke="rgb(251,223,195)" stroke-width="1" opacity="1" d="M 36.5 36 Q 40 38 35.5 40 L 34 39.5 L 37 37.5 L 36.5 36 Z " /><path fill="rgb(251,223,195)" stroke="rgb(251,223,195)" stroke-width="1" opacity="1" d="M 44.5 36 L 44.5 39 Q 41.5 37.5 44.5 36 Z " /><path fill="rgb(251,223,195)" stroke="rgb(251,223,195)" stroke-width="1" opacity="1" d="M 55.5 53 L 54.5 55 L 55.5 53 Z " /><path fill="rgb(251,223,195)" stroke="rgb(251,223,195)" stroke-width="1" opacity="1" d="M 19.5 54 L 20.5 56 L 19.5 54 Z " /><path fill="rgb(251,223,195)" stroke="rgb(251,223,195)" stroke-width="1" opacity="1" d="M 30.5 56 L 32.5 59 L 30.5 56 Z " /><path fill="rgb(251,223,195)" stroke="rgb(251,223,195)" stroke-width="1" opacity="1" d="M 50.5 56 L 48.5 59 L 50.5 56 Z " /><path fill="rgb(251,223,195)" stroke="rgb(251,223,195)" stroke-width="1" opacity="1" d="M 54.5 58 L 53.5 60 L 54.5 58 Z " /><path fill="rgb(251,223,195)" stroke="rgb(251,223,195)" stroke-width="1" opacity="1" d="M 38.5 61 L 43 61.5 L 38.5 62 L 38.5 61 Z " /><path fill="rgb(251,223,195)" stroke="rgb(251,223,195)" stroke-width="1" opacity="1" d="M 34.5 62 L 35.5 64 L 34.5 62 Z " /><path fill="rgb(251,223,195)" stroke="rgb(251,223,195)" stroke-width="1" opacity="1" d="M 30.5 64 L 33 64.5 L 30.5 65 L 30.5 64 Z " /><path fill="rgb(251,223,195)" stroke="rgb(251,223,195)" stroke-width="1" opacity="1" d="M 48.5 64 L 51 64.5 L 48.5 65 L 48.5 64 Z " /><path fill="rgb(251,223,195)" stroke="rgb(251,223,195)" stroke-width="1" opacity="1" d="M 17.5 65 L 27 65.5 L 17.5 66 L 17.5 65 Z " /><path fill="rgb(251,223,195)" stroke="rgb(251,223,195)" stroke-width="1" opacity="1" d="M 54.5 65 L 64 65.5 L 54.5 66 L 54.5 65 Z " /><path fill="rgb(251,223,195)" stroke="rgb(251,223,195)" stroke-width="1" opacity="1" d="M 36.5 67 L 39 67.5 L 36.5 68 L 36.5 67 Z " /><path fill="rgb(251,223,195)" stroke="rgb(251,223,195)" stroke-width="1" opacity="1" d="M 42.5 67 L 45 67.5 L 42.5 68 L 42.5 67 Z " /><path fill="rgb(251,223,195)" stroke="rgb(251,223,195)" stroke-width="1" opacity="1" d="M 8.5 70 L 11 70.5 L 8.5 71 L 8.5 70 Z " /><path fill="rgb(251,223,195)" stroke="rgb(251,223,195)" stroke-width="1" opacity="1" d="M 69.5 70 L 73 70.5 L 68.5 72 L 69.5 70 Z " /><path fill="rgb(251,223,195)" stroke="rgb(251,223,195)" stroke-width="1" opacity="1" d="M 21.5 72 L 22.5 74 L 21.5 72 Z " /><path fill="rgb(251,223,195)" stroke="rgb(251,223,195)" stroke-width="1" opacity="1" d="M 59.5 72 L 58.5 74 L 59.5 72 Z " /><path fill="rgb(251,223,195)" stroke="rgb(251,223,195)" stroke-width="1" opacity="1" d="M 16.5 73 L 17.5 75 L 16.5 73 Z " /><path fill="rgb(251,223,195)" stroke="rgb(251,223,195)" stroke-width="1" opacity="1" d="M 64.5 73 L 63.5 75 L 64.5 73 Z " /><path fill="rgb(251,223,195)" stroke="rgb(251,223,195)" stroke-width="1" opacity="1" d="M 26.5 75 L 28.5 78 L 26.5 75 Z " /><path fill="rgb(251,223,195)" stroke="rgb(251,223,195)" stroke-width="1" opacity="1" d="M 54.5 75 L 52.5 78 L 54.5 75 Z " /><path fill="rgb(251,223,195)" stroke="rgb(251,223,195)" stroke-width="1" opacity="1" d="M 22.5 77 L 23.5 79 L 22.5 77 Z " /><path fill="rgb(251,223,195)" stroke="rgb(251,223,195)" stroke-width="1" opacity="1" d="M 58.5 77 L 57.5 79 L 58.5 77 Z " /><path fill="rgb(251,223,195)" stroke="rgb(251,223,195)" stroke-width="1" opacity="1" d="M 33.5 80 L 34.5 82 L 33.5 80 Z " /><path fill="rgb(251,223,195)" stroke="rgb(251,223,195)" stroke-width="1" opacity="1" d="M 47.5 80 L 46.5 82 L 47.5 80 Z " /><path fill="rgb(251,223,195)" stroke="rgb(251,223,195)" stroke-width="1" opacity="1" d="M 28.5 81 L 29.5 83 L 28.5 81 Z " /><path fill="rgb(251,223,195)" stroke="rgb(251,223,195)" stroke-width="1" opacity="1" d="M 52.5 81 L 51.5 83 L 52.5 81 Z " /><path fill="rgb(251,223,195)" stroke="rgb(251,223,195)" stroke-width="1" opacity="1" d="M 70.5 81 L 71 82.5 L 69 83.5 L 70.5 81 Z " /><path fill="rgb(251,223,195)" stroke="rgb(251,223,195)" stroke-width="1" opacity="1" d="M 39.5 83 L 42 83.5 L 39.5 84 L 39.5 83 Z " /><path fill="rgb(251,223,195)" stroke="rgb(251,223,195)" stroke-width="1" opacity="1" d="M 33.5 84 L 34 86.5 L 33 86.5 L 33.5 84 Z " /><path fill="rgb(251,223,195)" stroke="rgb(251,223,195)" stroke-width="1" opacity="1" d="M 12.5 85 L 16 85.5 L 12.5 86 L 12.5 85 Z " /><path fill="rgb(251,223,195)" stroke="rgb(251,223,195)" stroke-width="1" opacity="1" d="M 47.5 85 L 48 87 L 46 86.5 L 47.5 85 Z " /><path fill="rgb(251,223,195)" stroke="rgb(251,223,195)" stroke-width="1" opacity="1" d="M 65.5 85 L 69 85.5 L 65.5 86 L 65.5 85 Z " /><path fill="rgb(251,223,195)" stroke="rgb(251,223,195)" stroke-width="1" opacity="1" d="M 27.5 86 L 32 86.5 L 27.5 87 L 27.5 86 Z " /><path fill="rgb(251,223,195)" stroke="rgb(251,223,195)" stroke-width="1" opacity="1" d="M 49.5 86 L 54 86.5 L 49.5 87 L 49.5 86 Z " /><path fill="rgb(251,223,195)" stroke="rgb(251,223,195)" stroke-width="1" opacity="1" d="M 31.5 89 L 49 89.5 L 31.5 90 L 31.5 89 Z " /><path fill="rgb(251,223,195)" stroke="rgb(251,223,195)" stroke-width="1" opacity="1" d="M 25.5 90 L 28 90.5 L 25.5 91 L 25.5 90 Z " /><path fill="rgb(251,223,195)" stroke="rgb(251,223,195)" stroke-width="1" opacity="1" d="M 53.5 90 L 56 90.5 L 53.5 91 L 53.5 90 Z " /><path fill="rgb(247,156,64)" stroke="rgb(247,156,64)" stroke-width="1" opacity="1" d="M 39.5 82 L 42 82.5 L 39.5 83 L 39.5 82 Z " /></svg>